<?xml version="1.0" encoding="UTF-8" standalone="no"?>
<svg
   version="1.1"
   id="Layer_1"
   x="0px"
   y="0px"
   width="606.12787"
   viewBox="0 0 606.12787 177.27699"
   enable-background="new 0 0 1024 1024"
   xml:space="preserve"
   sodipodi:docname="inquiro_logo_dark_mode.svg"
   inkscape:version="1.3 (0e150ed6c4, 2023-07-21)"
   inkscape:export-filename="inquiro_icon.svg"
   inkscape:export-xdpi="4.7371759"
   inkscape:export-ydpi="4.7371759"
   height="177.27699"
   xmlns:inkscape="http://www.inkscape.org/namespaces/inkscape"
   xmlns:sodipodi="http://sodipodi.sourceforge.net/DTD/sodipodi-0.dtd"
   xmlns="http://www.w3.org/2000/svg"
   xmlns:svg="http://www.w3.org/2000/svg"><defs
   id="defs13" /><sodipodi:namedview
   id="namedview13"
   pagecolor="#ffffff"
   bordercolor="#000000"
   borderopacity="0.25"
   inkscape:showpageshadow="2"
   inkscape:pageopacity="0.0"
   inkscape:pagecheckerboard="0"
   inkscape:deskcolor="#d1d1d1"
   inkscape:zoom="1"
   inkscape:cx="457"
   inkscape:cy="99.5"
   inkscape:window-width="2048"
   inkscape:window-height="1081"
   inkscape:window-x="-8"
   inkscape:window-y="463"
   inkscape:window-maximized="1"
   inkscape:current-layer="Layer_1"
   inkscape:export-bgcolor="#ffffff00" />&#10;&#10;&#10;&#10;&#10;&#10;&#10;&#10;<g
   id="g1"
   inkscape:export-filename="g1.svg"
   inkscape:export-xdpi="127.43004"
   inkscape:export-ydpi="127.43004"
   transform="translate(-212.80218,-428.29527)"><path
     d="m 320.76562,586.30664 -3.58144,1.46255 -3.22807,1.32242 -6.91314,-3.6795 c 4.38422,2.35319 0.0181,0.0223 0.0273,0.0332 -2.82809,-1.52488 -5.67497,-2.97542 -8.54101,-4.35351 -2.86604,-1.37809 -5.75141,-2.68351 -8.65625,-3.91602 -2.90485,-1.23251 -5.82894,-2.39232 -8.77344,-3.48047 -2.9445,-1.08815 -5.90952,-2.10577 -8.89453,-3.05078 -2.98501,-0.94501 -5.99121,-1.81801 -9.01758,-2.62109 -3.02637,-0.80308 -6.07204,-1.5349 -9.14063,-2.19727 -3.06858,-0.66237 -6.15982,-1.25642 -9.27148,-1.7793 -3.11166,-0.52287 -6.24481,-0.97477 -9.40039,-1.35937 -0.89551,-0.10915 -1.67971,-0.2052 -2.36523,-0.30273 -0.68553,-0.0975 -1.27184,-0.19775 -1.7754,-0.31641 -0.50355,-0.11866 -0.92382,-0.25521 -1.27343,-0.42774 -0.34961,-0.17252 -0.62983,-0.37954 -0.85352,-0.63867 -0.22369,-0.25913 -0.38983,-0.57074 -0.51562,-0.94922 -0.1258,-0.37848 -0.20971,-0.82489 -0.26563,-1.35546 -0.0559,-0.53057 -0.0855,-1.14593 -0.0996,-1.86133 -0.0141,-0.7154 -0.0134,-1.52992 -0.0137,-2.46289 -0.008,-32.65634 -0.006,-65.31446 -0.0449,-97.97071 -9.5e-4,-0.79389 -0.005,-1.48971 -0.0273,-2.09961 -0.0222,-0.60989 -0.0617,-1.132 -0.13671,-1.58203 -0.075,-0.45002 -0.18436,-0.82633 -0.34375,-1.14062 -0.0797,-0.15715 -0.17258,-0.3 -0.2793,-0.42774 -0.10672,-0.12773 -0.22754,-0.24045 -0.36524,-0.34179 -0.27539,-0.20268 -0.61607,-0.3555 -1.03906,-0.47071 -0.42298,-0.1152 -0.92908,-0.19424 -1.53125,-0.24609 -0.60216,-0.0519 -1.30035,-0.0772 -2.11328,-0.0898 -0.81293,-0.0126 -1.73963,-0.0122 -2.79492,-0.01 -0.77397,0.002 -1.45766,0.009 -2.06055,0.0312 -0.60288,0.0221 -1.12506,0.0593 -1.57812,0.12305 -0.45306,0.0638 -0.83567,0.15448 -1.16016,0.28125 -0.32449,0.12676 -0.59141,0.28892 -0.80859,0.5 -0.21718,0.21107 -0.3845,0.4704 -0.51563,0.78711 -0.13112,0.3167 -0.22469,0.6911 -0.29101,1.13476 -0.0663,0.44367 -0.10613,0.95688 -0.12891,1.54883 -0.0228,0.59195 -0.0288,1.26383 -0.0293,2.02539 -0.0132,18.91067 0.004,37.82177 -0.004,56.73242 -0.008,18.91066 -0.0414,37.82049 -0.15821,56.73047 -0.004,0.65189 0.018,1.24931 0.0703,1.79492 0.0523,0.54562 0.13477,1.03861 0.25,1.48633 0.11522,0.44773 0.26462,0.84881 0.44922,1.20703 0.18459,0.35822 0.40555,0.67408 0.66601,0.95117 0.26046,0.2771 0.55952,0.51635 0.90234,0.72071 0.34283,0.20435 0.72847,0.37367 1.16016,0.51367 0.43169,0.14 0.9085,0.24995 1.43555,0.33398 0.52704,0.084 1.10352,0.14325 1.73242,0.17969 2.37175,0.13744 4.74043,0.30767 7.10352,0.50977 2.36308,0.2021 4.72199,0.43621 7.07812,0.70117 2.35613,0.26496 4.70771,0.56071 7.05859,0.88672 2.35089,0.32601 4.69952,0.68115 7.04688,1.0664 2.34736,0.38526 4.69352,0.79949 7.03906,1.24219 2.34554,0.44271 4.69167,0.91377 7.03711,1.41211 2.34544,0.49834 4.69005,1.02399 7.03711,1.57617 2.34706,0.55218 4.69649,1.13212 7.04688,1.73633 1.71713,0.48749 3.3263,0.98288 4.89062,1.44922 1.56432,0.46634 3.0833,0.90289 4.61914,1.26758 0.60459,0.14357 1.18783,0.30138 1.75,0.47851 0.56217,0.17714 1.10371,0.37297 1.62695,0.58985 0.52324,0.21688 1.02783,0.45595 1.51563,0.71875 0.4878,0.26279 0.95822,0.55035 1.41406,0.86523 0.45585,0.31488 0.89684,0.65616 1.32422,1.0293 0.42738,0.37314 0.84174,0.77727 1.24414,1.21484 0.4024,0.43758 0.79292,0.90979 1.17383,1.41797 0.38091,0.50818 0.75232,1.05371 1.11523,1.63867 0.48891,0.78803 1.03481,1.52057 1.62891,2.19922 0.5941,0.67865 1.23536,1.30263 1.91992,1.87305 0.68457,0.57042 1.41159,1.08743 2.17188,1.55078 0.76028,0.46335 1.55372,0.87304 2.375,1.23047 0.82127,0.35743 1.66958,0.66139 2.53711,0.91406 0.86752,0.25267 1.75526,0.45445 2.65429,0.60352 0.89904,0.14906 1.81076,0.24635 2.72657,0.29297 0.9158,0.0466 1.83606,0.041 2.7539,-0.0137 0.91784,-0.0547 1.83315,-0.15963 2.73828,-0.31445 0.90514,-0.15482 1.80004,-0.35948 2.67774,-0.61328 0.87769,-0.2538 1.73675,-0.55658 2.57226,-0.9082 0.83552,-0.35163 1.64718,-0.75092 2.42578,-1.19922 0.77861,-0.4483 1.52548,-0.94447 2.23243,-1.48828 0.70694,-0.54382 1.37358,-1.13527 1.99414,-1.77344 0.62055,-0.63818 1.19541,-1.32331 1.71484,-2.05469 0.51943,-0.73138 0.98316,-1.5086 1.38672,-2.33203 0.31,-0.63254 0.6424,-1.18683 1.00586,-1.67383 0.36346,-0.487 0.75937,-0.90694 1.19726,-1.26953 0.43789,-0.36259 0.91789,-0.66841 1.45118,-0.92773 0.53328,-0.25933 1.11987,-0.47321 1.76953,-0.65039 3.4925,-0.95267 6.97067,-1.95253 10.4414,-2.9668 3.47074,-1.01427 6.93241,-2.04322 10.39063,-3.04883 -0.0434,-0.39421 -0.11186,-0.76113 -0.20313,-1.10547 -0.0913,-0.34434 -0.20354,-0.66451 -0.33398,-0.9668 -0.13044,-0.30228 -0.27852,-0.58547 -0.43945,-0.85351 -0.16093,-0.26805 -0.33485,-0.52206 -0.51758,-0.76367 -0.36546,-0.48323 -0.76743,-0.92132 -1.16797,-1.34571 -0.40054,-0.42438 -0.7999,-0.83563 -1.16602,-1.26367 -0.62518,-0.73092 -1.1779,-1.37155 -1.67773,-1.92773 -0.49983,-0.55618 -0.94651,-1.02715 -1.36524,-1.41797 -0.41872,-0.39083 -0.80954,-0.70068 -1.1914,-0.93555 -0.38186,-0.23486 -0.75528,-0.39412 -1.14453,-0.48242 -0.38925,-0.0883 -0.79349,-0.10551 -1.23438,-0.0566 -0.44089,0.0489 -0.9183,0.1632 -1.45508,0.33984 -0.53677,0.17665 -1.13363,0.41591 -1.81054,0.71094 -0.67691,0.29503 -1.43364,0.64677 -2.29492,1.05078 -3.66725,1.72025 -7.30978,3.49526 -11.03907,5.33203 -3.72928,1.83678 -8.17906,3.95506 -11.56445,5.70313 0.005,-0.006 0.0106,-0.0114 0.0156,-0.0176 z"
     style="opacity:1;fill:#ffffff;fill-opacity:1"
     id="path15"
     sodipodi:nodetypes="cccccssssssssssssssscssssssssscssssssscssssssssssssssssscssssssssssssssssssssssssssssscscsssssssssssssssccc"
     inkscape:export-filename="inquiro_icon.svg"
     inkscape:export-xdpi="127.43004"
     inkscape:export-ydpi="127.43004" /><path
     d="m 238.33203,429.31445 c -0.56737,0.008 -1.04222,0.0578 -1.4375,0.16407 -0.19764,0.0531 -0.37472,0.12035 -0.53516,0.20312 -0.16043,0.0828 -0.30452,0.18103 -0.43164,0.29688 -0.12711,0.11584 -0.23826,0.25 -0.33593,0.40234 -0.0977,0.15234 -0.1818,0.32337 -0.25391,0.51562 -0.14423,0.38451 -0.24137,0.85134 -0.30664,1.41602 -0.0653,0.56468 -0.0979,1.2278 -0.11523,2 -0.0174,0.7722 -0.019,1.65503 -0.0195,2.66211 -0.009,17.82747 0.0117,35.65496 0.008,53.48242 -0.004,17.82746 -0.032,35.65361 -0.13672,53.48047 -0.004,0.60819 0.0192,1.16792 0.0723,1.68164 0.0531,0.51372 0.13597,0.98134 0.25,1.41016 0.11403,0.42881 0.26026,0.8184 0.43946,1.17187 0.17919,0.35347 0.39202,0.6713 0.64062,0.95899 0.2486,0.28769 0.53322,0.54587 0.85547,0.77734 0.32225,0.23147 0.68189,0.43629 1.08203,0.62109 0.40015,0.18481 0.83999,0.34839 1.32227,0.4961 0.48228,0.14771 1.00751,0.28022 1.57617,0.40039 1.40701,0.29733 2.80459,0.61222 4.19531,0.94531 1.39072,0.3331 2.77426,0.68349 4.14844,1.05273 1.37418,0.36925 2.74026,0.75632 4.09766,1.16211 1.35739,0.40579 2.7065,0.83072 4.04687,1.27344 1.34037,0.44273 2.67104,0.90472 3.99414,1.38477 1.3231,0.48005 2.63778,0.97832 3.94336,1.49609 1.30558,0.51777 2.60281,1.05349 3.89063,1.60938 1.28781,0.55588 2.56612,1.13217 3.83593,1.72656 1.26981,0.59438 2.53165,1.20852 3.78321,1.8418 1.25155,0.63327 2.4935,1.28446 3.72656,1.95703 1.23305,0.67256 2.45561,1.36588 3.66992,2.07812 1.21431,0.71225 2.41991,1.44495 3.61523,2.19727 1.19533,0.75231 2.38056,1.52363 3.55665,2.3164 1.17608,0.79278 2.34339,1.60583 3.5,2.43946 1.1566,0.83363 2.30257,1.68762 3.43945,2.5625 1.13688,0.87487 2.26395,1.77098 3.38086,2.6875 0.51458,0.42224 1.02746,0.84843 1.52929,1.28711 0.50184,0.43867 0.99413,0.89007 1.46485,1.35937 0.40556,0.40433 6.68743,4.526 8.02344,4.71875 4.14861,0.87872 8.29809,-2.5272 11.6582,-5.31445 0.6442,-0.6277 1.2956,-1.23101 1.95508,-1.81446 0.65947,-0.58344 1.32601,-1.14637 1.99804,-1.69335 1.34407,-1.09398 2.70997,-2.12234 4.08789,-3.11719 1.37793,-0.99485 2.76821,-1.95604 4.15821,-2.91406 0.9537,-0.65732 1.78851,-1.23217 2.51367,-1.75 0.72516,-0.51784 1.34138,-0.97878 1.85547,-1.41016 0.51408,-0.43138 0.92561,-0.8325 1.24609,-1.23047 0.16025,-0.19898 0.29699,-0.39708 0.41211,-0.59766 0.11512,-0.20057 0.20907,-0.40448 0.28125,-0.61328 0.0722,-0.2088 0.12287,-0.42283 0.1543,-0.64648 0.0314,-0.22365 0.0442,-0.45604 0.0371,-0.70117 -0.0143,-0.49027 -0.1043,-1.03052 -0.25977,-1.64649 -0.15547,-0.61596 -0.37708,-1.3088 -0.65625,-2.10351 -0.27917,-0.79471 -0.61655,-1.69031 -1.00195,-2.7168 -0.058,-0.15448 -0.0628,-0.32819 -0.11328,-0.48633 -0.0928,-0.29107 -0.19252,-0.54577 -0.30078,-0.76562 -0.10827,-0.21985 -0.22548,-0.40535 -0.35157,-0.56055 -0.12608,-0.1552 -0.25998,-0.27982 -0.40625,-0.37695 -0.14627,-0.0971 -0.30384,-0.16727 -0.47265,-0.21289 -0.16882,-0.0456 -0.34925,-0.0677 -0.54297,-0.0684 -0.19372,-7e-4 -0.40011,0.0209 -0.62109,0.0586 -0.44197,0.0753 -0.94262,0.22082 -1.50782,0.41016 -2.96073,0.99183 -5.84578,1.92692 -8.85547,2.85742 -3.00968,0.9305 -6.14292,1.85536 -9.59765,2.82617 -0.84279,0.23683 -1.56408,0.48428 -2.16992,0.77734 -0.30293,0.14654 -0.57646,0.30469 -0.82227,0.47852 -0.24581,0.17383 -0.46419,0.36426 -0.6543,0.57422 -0.1901,0.20996 -0.35246,0.43845 -0.48828,0.69336 -0.13582,0.25491 -0.24518,0.53505 -0.32812,0.84375 -0.0829,0.30869 -0.14039,0.64627 -0.17188,1.01758 -0.0315,0.3713 -0.0361,0.77601 -0.0176,1.21875 0.0601,1.43246 0.094,2.86652 0.11133,4.30078 0.0173,1.43426 0.0167,2.8694 0.01,4.30468 -0.0139,2.87057 -0.14813,3.60917 -0.3691,6.45704 -1.27049,-1.44443 -1.21006,-1.17946 -2.12696,-2.7461 -0.91502,-1.56343 -1.54921,-3.26289 -2.32031,-4.88086 -0.7711,-1.61796 -1.54838,-3.22317 -2.35937,-4.81054 -0.811,-1.58738 -1.65654,-3.1561 -2.56055,-4.69727 -0.44859,-0.76477 -0.90458,-1.43297 -1.38867,-2.0293 -0.48409,-0.59632 -0.99614,-1.12156 -1.55078,-1.60351 -0.55465,-0.48196 -1.15226,-0.92013 -1.8125,-1.3418 -0.66025,-0.42166 -1.3827,-0.82673 -2.1836,-1.24219 -3.09704,-1.60655 -6.04194,-3.17341 -8.9707,-4.72265 -2.92876,-1.54924 -5.84174,-3.08103 -8.87305,-4.61524 -1.50288,-0.76064 -3.27214,-1.73588 -5.22851,-2.80273 -1.95638,-1.06686 -4.09928,-2.22413 -6.34571,-3.35156 -1.12321,-0.56372 -2.27241,-1.11954 -3.4375,-1.65235 -1.16508,-0.5328 -2.34668,-1.04248 -3.5332,-1.51367 -1.18652,-0.47118 -2.37888,-0.90434 -3.56641,-1.2832 -1.18752,-0.37887 -2.369,-0.7051 -3.5371,-0.96094 -0.46948,-0.10283 -0.89529,-0.22427 -1.2793,-0.36523 -0.38401,-0.14097 -0.72778,-0.30027 -1.0332,-0.48047 -0.30543,-0.18021 -0.57292,-0.38103 -0.80665,-0.60157 -0.23372,-0.22053 -0.43264,-0.46068 -0.60156,-0.72265 -0.16891,-0.26197 -0.30698,-0.54511 -0.41797,-0.84961 -0.11098,-0.3045 -0.19592,-0.63039 -0.25586,-0.97852 -0.0599,-0.34812 -0.0955,-0.71848 -0.11132,-1.11133 -0.0158,-0.39284 -0.0117,-0.80937 0.01,-1.24804 0.16703,-3.40777 0.32926,-6.82051 0.42188,-10.23438 0.0463,-1.70693 0.0759,-3.4151 0.0801,-5.12109 0.004,-1.706 -0.0168,-3.40987 -0.0703,-5.11328 -0.16092,-5.12214 -0.2579,-10.24517 -0.3125,-15.36719 -0.0546,-5.12202 -0.0669,-10.24329 -0.0625,-15.36523 0.009,-10.2439 0.0884,-20.48857 0.0488,-30.73243 -0.002,-0.51572 0.0158,-0.98373 0.0586,-1.40625 0.0429,-0.42251 0.10997,-0.79953 0.20313,-1.13281 0.0932,-0.33328 0.21237,-0.62306 0.36133,-0.87109 0.14896,-0.24804 0.32882,-0.45433 0.53906,-0.6211 0.21024,-0.16677 0.45152,-0.29332 0.72852,-0.38281 0.27699,-0.0895 0.58827,-0.14201 0.9375,-0.1582 0.34922,-0.0162 0.73712,0.004 1.16406,0.0566 0.42694,0.0531 0.89416,0.13935 1.40429,0.25781 1.1447,0.26583 2.28091,0.55063 3.41016,0.85352 1.12925,0.30288 2.2508,0.62569 3.36524,0.96484 2.22886,0.6783 4.42814,1.42751 6.60156,2.24609 2.17342,0.81859 4.3203,1.7057 6.44336,2.65821 2.12306,0.9525 4.22299,1.97071 6.30078,3.05078 0.35988,0.18708 0.71504,0.40188 1.07422,0.60742 0.35917,0.20554 0.72255,0.40185 1.09765,0.54688 0.18755,0.0725 0.37762,0.13125 0.57227,0.17382 0.19465,0.0426 0.39383,0.0695 0.59766,0.0723 0.20383,0.003 0.41186,-0.0175 0.62695,-0.0645 0.21509,-0.0469 0.43759,-0.12204 0.66601,-0.22852 4.33822,-2.02222 8.67164,-4.05548 13.05664,-6.10742 -0.10235,-0.33581 -0.23026,-0.6414 -0.37695,-0.92383 -0.14669,-0.28242 -0.31294,-0.54168 -0.49609,-0.7793 -0.18315,-0.23761 -0.38202,-0.45486 -0.59375,-0.65625 -0.21173,-0.20138 -0.43553,-0.38681 -0.66797,-0.56054 -0.46487,-0.34746 -0.96442,-0.64727 -1.46484,-0.93555 -0.50043,-0.28828 -1.00166,-0.56362 -1.47461,-0.86133 -1.93561,-1.21839 -3.89425,-2.37244 -5.875,-3.46094 -1.98076,-1.08849 -3.98486,-2.11151 -6.00977,-3.07226 -2.02491,-0.96075 -4.07062,-1.8582 -6.13867,-2.69336 -2.06805,-0.83516 -4.15739,-1.60858 -6.26758,-2.32031 -2.11019,-0.71173 -4.24125,-1.36268 -6.39258,-1.95313 -2.15132,-0.59045 -4.32417,-1.12047 -6.51562,-1.59179 -2.19146,-0.47133 -4.40224,-0.88393 -6.63282,-1.23829 -2.23057,-0.35435 -4.47935,-0.65108 -6.74804,-0.89062 -1.0047,-0.10608 -1.88574,-0.1971 -2.65625,-0.25977 -0.77051,-0.0627 -1.43068,-0.096 -1.99805,-0.0879 z"
     style="opacity:1;fill:#4a87fe;fill-opacity:1"
     id="path14"
     sodipodi:nodetypes="sssssssscccsssssssssssssssssssssssssscssssssssssssssssssssssssssssssscsccssssssssssssssssssssssscscsscssssssscssssssssscsscsssssssssssssssss" /><path
     fill="#000000"
     opacity="1"
     stroke="none"
     d="m 352.48453,566.48206 c -2.861,-3.04816 -5.15601,-5.8219 -6.10813,-9.85828 -1.39373,-5.90869 -5.80835,-7.54382 -11.02139,-4.83447 -30.68063,15.94549 -68.33127,-4.22431 -72.83954,-39.02076 -3.02298,-23.33273 11.47028,-46.22055 34.05603,-53.78143 22.28379,-7.45978 47.25461,1.64224 58.69843,22.13034 10.40936,18.63611 9.64834,37.27542 -2.21372,55.20865 -3.30304,4.99371 -1.94674,10.05878 3.86512,11.81378 2.63195,0.79474 4.36593,2.28003 6.01941,4.11811 6.68426,7.43066 13.33288,14.89343 19.96353,22.372 1.33593,1.50672 2.50717,3.14649 4.84277,3.07172 4.75467,-0.15228 7.40356,3.01203 10.55164,6.69318 -3.0727,1.53674 -6.01084,2.0404 -8.85129,1.78161 -5.10285,-0.46502 -7.26441,1.96289 -8.05408,6.62555 -0.52258,3.08539 -1.2099,6.18817 -3.14233,9.76734 -3.18006,-3.14099 -6.44965,-5.69965 -5.82676,-10.35199 0.33109,-2.47303 -0.40188,-4.1095 -1.9523,-5.80805 -5.95251,-6.5213 -11.83148,-13.10968 -17.98739,-19.9273 M 276.86707,512.6441 c 2.72894,14.79261 11.22369,24.8913 25.63137,28.8963 14.41791,4.00782 27.27393,0.64551 37.50309,-10.96191 9.20538,-10.4458 11.28903,-26.73621 4.8601,-39.7106 -6.68606,-13.49332 -20.27118,-21.57242 -34.36776,-20.43866 -21.35358,1.71744 -35.83072,19.4205 -33.6268,42.21487 z"
     id="path2"
     style="fill:#4a87fe;fill-opacity:1" /><path
     fill="#000000"
     opacity="1"
     stroke="none"
     d="m 393.42866,545.44781 c 0.012,1.87248 -15.21124,11.58352 -17.88282,9.56045 -18.82996,-14.25905 -12.22557,-9.33863 -19.50919,-14.27877 11.5541,-15.52966 15.66459,-32.48529 9.68663,-50.87829 -5.96039,-18.33911 -18.76755,-30.16703 -36.35913,-36.96399 0.24679,-3.0268 2.46389,-3.88605 4.16821,-5.03891 16.49713,-11.15934 35.06879,-13.58218 53.96261,-19.15049 6.94754,-2.04755 5.18365,-0.69731 5.93369,116.75 z"
     id="path3"
     sodipodi:nodetypes="sscscsss"
     style="fill:#4a87fe;fill-opacity:1" /><path
     fill="#000000"
     opacity="1"
     stroke="none"
     d="m 400.69641,518 c -0.005,-20.98749 0.14819,-41.47702 -0.12299,-61.96097 -0.54371,-6.56867 2.87622,-6.36449 7.6276,-6.38179 4.99456,-0.0182 7.28851,1.26767 7.25314,6.1406 -0.20321,27.98135 -0.10101,55.96493 -0.10373,83.94775 -9.7e-4,9.82733 -0.3834,22.09888 0.008,31.91054 0.30524,7.65523 -5.16631,6.51715 -15.96268,6.27993 -5.02617,-0.11044 -11.7079,-7.48265 -16.65082,-12.54215 6.82577,-3.06196 18.02191,-0.62528 18.09287,-10.42108 C 400.38977,542.82996 400.6976,530.65924 400.69641,518 Z"
     id="path8"
     sodipodi:nodetypes="csssssscsc"
     style="fill:#fefeff;fill-opacity:1" /></g>&#10;&#10;&#10;&#10;&#10;&#10;<text
   xml:space="preserve"
   style="font-size:110.243px;line-height:0;font-family:'Microsoft JhengHei UI';-inkscape-font-specification:'Microsoft JhengHei UI';fill:#ffffff;fill-opacity:1;stroke-width:191.856;paint-order:fill markers stroke"
   x="242.509"
   y="122.45034"
   id="text13"
   inkscape:export-filename="text13.svg"
   inkscape:export-xdpi="127.43004"
   inkscape:export-ydpi="127.43004"><tspan
     sodipodi:role="line"
     id="tspan13"
     x="242.509"
     y="122.45034"
     style="font-style:normal;font-variant:normal;font-weight:bold;font-stretch:normal;font-size:110.243px;font-family:'Century Gothic';-inkscape-font-specification:'Century Gothic, Bold';font-variant-ligatures:normal;font-variant-caps:normal;font-variant-numeric:normal;font-variant-east-asian:normal;fill:#ffffff;fill-opacity:1;stroke-width:191.856">Inquiro</tspan></text></svg>
